<svg width="116" height="29" viewBox="0 0 116 29" fill="none" xmlns="http://www.w3.org/2000/svg">
<path fill-rule="evenodd" clip-rule="evenodd" d="M70.3031 8.13823C68.4716 8.13823 67.0217 8.51852 65.5718 9.35516C65.5718 5.17196 65.5718 1.29299 65.7244 0L56.7961 1.59722V2.3578L57.7118 2.50992C58.9328 2.7381 59.3143 3.42262 59.5433 5.01984C59.7722 8.21429 59.6959 25.0232 59.5433 27.8373C61.9089 28.3697 64.4272 28.75 66.9454 28.75C73.966 28.75 78.1631 24.4147 78.1631 17.5694C78.2394 12.0933 74.8054 8.13823 70.3031 8.13823ZM67.2506 27.2288C66.7165 27.2288 66.0297 27.2288 65.6481 27.0767C65.4955 25.2513 65.4192 17.4934 65.4955 10.6481C66.2586 10.42 66.7928 10.2679 67.4796 10.2679C70.3794 10.2679 71.9819 13.6905 71.9819 17.8737C71.9819 23.1978 69.9978 27.2288 67.2506 27.2288Z" fill="#1D2939"/>
<path fill-rule="evenodd" clip-rule="evenodd" d="M23.5247 0.532276H0.25V1.74921L1.54728 1.90132C3.30242 2.1295 3.91291 3.19431 4.21815 5.70423C4.5997 10.4198 4.44708 19.0144 4.21815 23.1216C3.98922 25.6315 3.30242 26.7724 1.54728 26.9245L0.25 27.1526V28.2175H15.2069V27.1526L13.6043 26.9245C11.8492 26.7724 11.2387 25.6315 10.9335 23.1216C10.7809 21.3722 10.7045 18.6341 10.7045 15.2115L13.9096 15.3636C15.8937 15.3636 16.8094 16.9608 17.1909 19.1665H18.4119V9.73532H17.1909C16.8094 11.941 15.8937 13.5382 13.9096 13.5382L10.7045 13.6903C10.7045 9.20291 10.8572 5.01971 10.9335 2.50979H15.5884C19.175 2.50979 21.0065 4.71548 22.3037 8.6705L23.601 8.29021L23.5247 0.532276Z" fill="#1D2939"/>
<path fill-rule="evenodd" clip-rule="evenodd" d="M31.0032 7.9101C37.6422 7.9101 40.9235 12.3975 40.9235 18.3301C40.9235 23.9584 37.2606 28.75 30.6216 28.75C23.9826 28.75 20.7012 24.2626 20.7012 18.3301C20.7012 12.6257 24.4404 7.9101 31.0032 7.9101ZM30.6216 9.20309C27.7218 9.20309 26.9587 13.1581 26.9587 18.254C26.9587 23.2739 28.256 27.3049 30.9268 27.3049C33.9793 27.3049 34.7424 23.3499 34.7424 18.254C34.7424 13.3102 33.4451 9.20309 30.6216 9.20309Z" fill="#1D2939"/>
<path fill-rule="evenodd" clip-rule="evenodd" d="M79.9182 18.4062C79.9182 13.0061 83.3522 7.8341 90.0675 7.8341C95.6382 7.8341 98.2327 11.9412 98.2327 17.3414H85.9467C85.7941 22.2091 88.1598 25.7838 92.9673 25.7838C95.104 25.7838 96.1723 25.2514 97.4696 24.3387L98.0038 25.0233C96.7065 26.8487 93.8067 28.6741 90.0675 28.6741C84.1916 28.7501 79.9182 24.4908 79.9182 18.4062ZM86.0231 15.9723L92.2042 15.8202C92.2042 13.1582 91.8227 9.20315 89.5333 9.20315C87.3203 9.20315 86.1757 12.93 86.0231 15.9723Z" fill="#1D2939"/>
<path fill-rule="evenodd" clip-rule="evenodd" d="M114.029 8.97492C112.426 8.29039 110.366 7.9101 107.924 7.9101C103.04 7.9101 99.9879 10.8003 99.9879 14.2229C99.9879 17.6456 102.201 19.0907 105.406 20.1555C108.687 21.3724 109.603 22.2851 109.603 23.8063C109.603 25.4035 108.382 26.8486 106.322 26.8486C103.803 26.8486 101.972 25.4035 100.522 21.4485L99.6063 21.6766L99.7589 27.4571C101.361 28.1416 104.261 28.674 106.78 28.674C111.969 28.674 115.25 26.012 115.25 21.9809C115.25 19.2428 113.8 17.6456 110.366 16.3526C106.703 14.9075 105.33 13.9948 105.33 12.2454C105.33 10.4961 106.551 9.35521 108.077 9.35521C110.442 9.35521 112.045 10.8003 113.266 14.3751L114.182 14.1469L114.029 8.97492Z" fill="#1D2939"/>
<path fill-rule="evenodd" clip-rule="evenodd" d="M58.0934 8.4426C55.8804 7.14961 51.9122 7.75807 49.7755 12.5497L49.9282 7.91019L41.0761 9.65953V10.4201L41.9919 10.5722C43.2128 10.7243 43.747 11.3328 43.8233 13.0821C44.0523 16.2766 43.9759 21.7528 43.8233 24.5669C43.6707 26.1642 43.1365 26.9247 41.9919 27.0769L41.0761 27.229V28.2938H53.3621V27.229L51.7596 27.0769C50.4623 26.9247 50.0045 26.1642 49.9282 24.5669C49.6992 22.057 49.6992 17.0372 49.7755 13.9188C50.4623 13.0061 53.3621 12.1694 55.9567 13.9188L58.0934 8.4426Z" fill="#1D2939"/>
</svg>
