<svg width="166" height="25" viewBox="0 0 166 25" fill="none" xmlns="http://www.w3.org/2000/svg">
<path d="M27.2613 21.4021V3.32178C27.2613 2.38119 27.4697 1.67574 27.9125 1.20545C28.3293 0.735149 28.9023 0.5 29.5796 0.5C30.2828 0.5 30.8559 0.735149 31.2726 1.20545C31.7155 1.67574 31.9238 2.38119 31.9238 3.32178V21.4021C31.9238 22.3427 31.7155 23.0743 31.2726 23.5446C30.8298 24.0149 30.2828 24.25 29.5796 24.25C28.9023 24.25 28.3553 24.0149 27.9386 23.5446C27.4958 23.0481 27.2613 22.3427 27.2613 21.4021Z" fill="#1D2939"/>
<path d="M153.305 24.2239C146.793 24.2239 141.48 18.8938 141.48 12.3619C141.48 5.83003 146.793 0.5 153.305 0.5C159.817 0.5 165.131 5.83003 165.131 12.3619C165.131 18.92 159.843 24.2239 153.305 24.2239ZM153.305 5.30748C149.424 5.30748 146.273 8.46892 146.273 12.3619C146.273 16.2549 149.424 19.4164 153.305 19.4164C157.186 19.4164 160.338 16.2549 160.338 12.3619C160.338 8.49505 157.186 5.30748 153.305 5.30748Z" fill="#1D2939"/>
<path d="M100.246 24.2239C93.7346 24.2239 88.4209 18.8938 88.4209 12.3619C88.4209 5.83003 93.7346 0.5 100.246 0.5C106.758 0.5 112.072 5.83003 112.072 12.3619C112.072 18.92 106.758 24.2239 100.246 24.2239ZM100.246 5.30748C96.3654 5.30748 93.2136 8.46892 93.2136 12.3619C93.2136 16.2549 96.3654 19.4164 100.246 19.4164C104.128 19.4164 107.279 16.2549 107.279 12.3619C107.279 8.49505 104.128 5.30748 100.246 5.30748Z" fill="#1D2939"/>
<path d="M137.703 12.3619C137.703 9.74918 136.843 7.31931 135.411 5.35974C133.327 2.51183 129.993 0.630638 126.216 0.5C126.086 0.5 125.981 0.5 125.851 0.5H119.912C118.896 0.5 118.167 0.735149 117.724 1.20545C117.281 1.67574 117.047 2.40732 117.047 3.45242V21.2976C117.047 22.3427 117.281 23.0743 117.724 23.5446C118.167 24.0149 118.922 24.25 119.912 24.25H125.851C125.981 24.25 126.086 24.25 126.216 24.25C129.993 24.1455 133.301 22.2643 135.411 19.3903C136.843 17.4046 137.703 14.9747 137.703 12.3619ZM126.711 19.3641C126.138 19.3903 125.513 19.4164 124.861 19.4164H121.762V5.30748H124.861C125.513 5.30748 126.138 5.30748 126.711 5.35974C128.768 5.59488 130.54 6.7445 131.66 8.36441C132.441 9.4879 132.91 10.8727 132.91 12.3619C132.91 13.8512 132.441 15.2098 131.66 16.3333C130.54 18.0055 128.768 19.129 126.711 19.3641Z" fill="#1D2939"/>
<path d="M81.7266 0.604448C80.867 0.343172 79.9293 0.682831 79.4344 1.44053L72.2974 12.3357L65.1604 1.44053C64.6655 0.682831 63.7278 0.343172 62.8682 0.604448C62.0087 0.865724 61.4096 1.70181 61.4096 2.61627V21.9768C61.4096 23.1264 62.3212 24.0932 63.4673 24.0932C64.5874 24.0932 65.5251 23.1526 65.5251 21.9768V9.51396L70.5783 17.2477C70.5783 17.2477 70.5783 17.2477 70.5783 17.2739C70.5783 17.2739 70.5783 17.3 70.6043 17.3C70.6304 17.3522 70.6564 17.4045 70.7085 17.4306C70.7346 17.4568 70.7346 17.4568 70.7606 17.4829C70.7867 17.509 70.8127 17.5613 70.8388 17.5874C70.8648 17.6135 70.8909 17.6396 70.9169 17.6658C70.9429 17.6919 70.969 17.6919 70.969 17.718C71.0211 17.7442 71.0471 17.7703 71.0992 17.8225L71.1253 17.8487C71.1774 17.8748 71.2295 17.9009 71.2555 17.927C71.2816 17.927 71.2816 17.9532 71.2816 17.9532C71.3076 17.9793 71.3597 17.9793 71.3858 18.0054C71.5941 18.1099 71.8025 18.1622 72.0369 18.1883C72.089 18.1883 72.1151 18.1883 72.1672 18.1883C72.1932 18.1883 72.2193 18.1883 72.2453 18.1883C72.2714 18.1883 72.2974 18.1883 72.3235 18.1883C72.3756 18.1883 72.4016 18.1883 72.4537 18.1883C72.6621 18.1622 72.8965 18.1099 73.1049 18.0054C73.1309 17.9793 73.183 17.9793 73.2091 17.9532L73.2351 17.927C73.2872 17.9009 73.3393 17.8748 73.3654 17.8487C73.3914 17.8487 73.3914 17.8225 73.3914 17.8225C73.4435 17.7964 73.4696 17.7703 73.5217 17.718C73.5477 17.6919 73.5738 17.6919 73.5738 17.6658C73.5998 17.6396 73.6258 17.6135 73.6519 17.5874C73.6779 17.5613 73.704 17.5351 73.73 17.4829C73.7561 17.4568 73.7561 17.4568 73.7821 17.4306C73.8082 17.3784 73.8603 17.3522 73.8863 17.3L73.9124 17.2739C73.9124 17.2739 73.9124 17.2739 73.9124 17.2477L78.9656 9.51396V21.9768C78.9656 23.1264 79.8772 24.0932 81.0233 24.0932C82.1434 24.0932 83.0811 23.1526 83.0811 21.9768V2.61627C83.1853 1.70181 82.5862 0.865724 81.7266 0.604448Z" fill="#1D2939"/>
<path d="M54.4288 23.5184H39.0869C38.2794 23.5184 37.3938 23.022 37.0552 22.2382C36.7165 21.4543 36.6644 20.3831 37.3677 19.5209L49.8966 4.91556H39.5297C38.4096 4.91556 37.4719 3.92272 37.4719 2.72085C37.4719 1.51898 38.3836 0.761276 39.5297 0.761276H53.4911C54.2986 0.761276 55.1321 0.891914 55.8615 1.70187C56.5387 2.43344 56.4866 4.02723 55.7573 4.96782L43.6452 19.129H54.4288C55.5749 19.129 56.3824 20.1218 56.3824 21.3237C56.3824 22.5256 55.5749 23.5184 54.4288 23.5184Z" fill="#1D2939"/>
<path d="M11.9974 24.2239C8.58521 24.2239 5.5116 22.8652 3.29756 20.4092C1.37004 18.2668 0.25 15.4189 0.25 12.5971C0.25 3.79208 7.54331 0.5 12.1537 0.5C16.686 0.5 19.994 2.72085 20.1503 2.82536C21.1662 3.5308 21.4527 4.91557 20.7494 5.96067C20.0722 7.00577 18.6917 7.26705 17.6758 6.58773C17.6237 6.5616 15.2534 5.02008 12.1537 5.02008C9.26245 5.02008 5.27717 6.92739 5.27717 12.5971C5.27717 15.8108 7.67355 19.6254 12.0495 19.6254C14.524 19.6254 16.2432 18.9722 17.259 18.319V14.9747H13.8729C12.6486 14.9747 11.6588 13.9557 11.6588 12.7277C11.6588 11.4736 12.6486 10.4807 13.8729 10.4807H19.5252C20.7494 10.4807 21.7392 11.4997 21.7392 12.7277V19.4425C21.7392 20.0434 21.5048 20.6444 21.062 21.0624C19.5773 22.5256 16.2953 24.2239 11.9974 24.2239Z" fill="#1D2939"/>
</svg>
