<svg width="239" height="35" viewBox="0 0 239 35" fill="none" xmlns="http://www.w3.org/2000/svg">
<path d="M90.3496 13.6197V28.4764H84.9248V13.6197H79.4379V8.88971H95.821V13.6197H90.3496Z" fill="#1D2939"/>
<path d="M108.5 22.5682H99.8819C100.052 24.1965 100.998 24.9099 102.377 24.9099C103.664 24.9099 104.733 24.6308 106.175 23.8709L108.097 27.0965C106.283 28.1666 104.408 28.7714 102.114 28.7714C97.6965 28.7714 95.263 25.6388 95.263 21.1259C95.263 16.0548 98.115 13.4649 101.974 13.4649C106.004 13.4649 108.515 16.1168 108.515 21.5757C108.515 22.0099 108.515 22.3201 108.5 22.5682ZM101.835 17.2024C100.688 17.2024 100.052 17.9933 99.8819 19.4356H104.082C103.819 17.9468 103.323 17.2024 101.835 17.2024Z" fill="#1D2939"/>
<path d="M117.862 28.7866C113.553 28.7866 110.98 26.0416 110.98 21.0945C110.98 16.5817 113.274 13.4801 117.97 13.4801C120.744 13.4801 122.325 14.7673 123.612 16.8298L120.14 19.4662C119.442 18.179 118.962 17.5587 117.877 17.5587C116.591 17.5587 115.94 18.8459 115.94 21.1721C115.94 23.4983 116.637 24.6924 118.017 24.6924C118.962 24.6924 119.644 24.1651 120.558 22.7849L123.751 25.2817C122.046 27.794 120.465 28.7866 117.862 28.7866Z" fill="#1D2939"/>
<path d="M135.02 28.4766V20.1332C135.02 18.2257 134.384 17.7295 133.346 17.7295C132.276 17.7295 131.641 18.2257 131.641 20.0867V28.4766H126.603V10.084L131.641 8.06794V14.7674C132.571 14.0696 133.594 13.4803 135.33 13.4803C138.553 13.4803 140.088 15.6359 140.088 19.4974V28.4766H135.02Z" fill="#1D2939"/>
<path d="M152.131 28.7868C146.319 28.7868 143.203 24.4755 143.203 18.691C143.203 12.3947 146.892 8.59525 152.147 8.59525C156.952 8.59525 158.858 10.6733 160.206 14.3643L155.293 16.2717C154.596 14.4573 153.929 13.3097 152.131 13.3097C149.868 13.3097 148.892 15.5739 148.892 18.6755C148.892 21.6686 149.837 24.0413 152.193 24.0413C153.898 24.0413 154.627 23.1108 155.681 21.2654L160.268 23.7001C158.967 26.29 156.781 28.7868 152.131 28.7868Z" fill="#1D2939"/>
<path d="M172.653 19.3269C172.017 18.6291 171.289 18.1018 170.312 18.1018C169.088 18.1018 168.328 18.6911 168.328 20.4745V28.4767H163.291V13.7906H168.328V14.8606C169.196 14.0232 170.173 13.4959 171.459 13.4959C172.529 13.4959 173.242 13.744 173.831 14.1162L172.653 19.3269Z" fill="#1D2939"/>
<path d="M184.618 28.4766V27.4996C183.719 28.1975 182.665 28.7868 180.96 28.7868C177.737 28.7868 176.202 26.6312 176.202 22.7697V13.7905H181.27V22.1338C181.27 24.0413 181.906 24.5376 182.944 24.5376C183.983 24.5376 184.618 24.0413 184.618 22.1803V13.7905H189.687V28.4766H184.618Z" fill="#1D2939"/>
<path d="M201.73 28.4764V20.1331C201.73 18.2256 201.095 17.7293 200.056 17.7293C198.987 17.7293 198.351 18.2256 198.351 20.0865V28.4764H193.314V13.7902H198.351V14.7673C199.281 14.0694 200.304 13.4801 202.04 13.4801C205.264 13.4801 206.798 15.6357 206.798 19.4972V28.4764H201.73Z" fill="#1D2939"/>
<path d="M216.61 28.7866C212.301 28.7866 209.728 26.0416 209.728 21.0945C209.728 16.5817 212.022 13.4801 216.718 13.4801C219.493 13.4801 221.074 14.7673 222.36 16.8298L218.888 19.4662C218.191 18.179 217.71 17.5587 216.625 17.5587C215.339 17.5587 214.688 18.8459 214.688 21.1721C214.688 23.4983 215.385 24.6924 216.765 24.6924C217.71 24.6924 218.392 24.1651 219.307 22.7849L222.5 25.2817C220.795 27.794 219.214 28.7866 216.61 28.7866Z" fill="#1D2939"/>
<path d="M233.768 28.4766V20.1332C233.768 18.2257 233.132 17.7295 232.094 17.7295C231.024 17.7295 230.389 18.2257 230.389 20.0867V28.4766H225.351V10.084L230.389 8.06794V14.7674C231.319 14.0696 232.342 13.4803 234.078 13.4803C237.302 13.4803 238.836 15.6359 238.836 19.4974V28.4766H233.768Z" fill="#1D2939"/>
<path d="M0.916748 0.5V11.6968H12.1075V34.075H23.2827V11.6968H34.4734V0.5H0.916748Z" fill="#1D2939"/>
<path d="M45.6487 22.8783V11.6969L34.4734 11.6968L34.4734 34.0751H68.0147V22.8783H45.6487Z" fill="#1D2939"/>
<path d="M68.0147 0.5H45.6487L45.6487 11.6969L68.0147 11.6968V0.5Z" fill="#1D2939"/>
</svg>
