<svg width="40" height="40" viewBox="0 0 40 40" fill="none" xmlns="http://www.w3.org/2000/svg">
<rect width="40" height="40" rx="20" fill="#5082F6"/>
<path fill-rule="evenodd" clip-rule="evenodd" d="M14.1195 12C12.9508 12 12 12.9498 12 14.1172C12 15.2852 12.9508 16.2353 14.1195 16.2353C15.2873 16.2353 16.2374 15.2851 16.2374 14.1172C16.2374 12.9498 15.2873 12 14.1195 12ZM15.7244 17.1297H12.5124C12.3698 17.1297 12.2543 17.2453 12.2543 17.3878V27.7067C12.2543 27.8492 12.3698 27.9647 12.5124 27.9647H15.7244C15.8669 27.9647 15.9824 27.8492 15.9824 27.7067V17.3878C15.9824 17.2453 15.8669 17.1297 15.7244 17.1297ZM21.0723 18.0579C21.6507 17.4278 22.6043 16.8732 23.8944 16.8732C27.5122 16.8732 28 19.4884 28 22.0466V27.7067C28 27.8492 27.8845 27.9647 27.7419 27.9647H24.5357C24.3932 27.9647 24.2777 27.8492 24.2777 27.7067V22.6897C24.2777 21.285 24.1739 20.2105 22.8678 20.2105C21.6685 20.2105 21.2012 20.8808 21.2012 22.6012V27.7066C21.2012 27.8492 21.0857 27.9647 20.9431 27.9647H17.7381C17.5956 27.9647 17.4801 27.8492 17.4801 27.7066V17.3877C17.4801 17.2452 17.5956 17.1297 17.7381 17.1297H20.8142C20.9567 17.1297 21.0723 17.2452 21.0723 17.3877V18.0579Z" fill="white"/>
</svg>
