<svg width="40" height="40" viewBox="0 0 40 40" fill="none" xmlns="http://www.w3.org/2000/svg">
<path fill-rule="evenodd" clip-rule="evenodd" d="M20 40C31.0457 40 40 31.0457 40 20C40 8.9543 31.0457 0 20 0C8.9543 0 0 8.9543 0 20C0 31.0457 8.9543 40 20 40ZM24.7573 9.98689L24.7759 9.44885C24.8315 7.04563 22.8669 5.05491 20.3649 5.0011C17.8815 4.9473 15.8243 6.86629 15.7687 9.26951C15.7687 9.50266 15.7872 9.75374 15.8057 9.98689L15.8613 10.3097L15.9725 10.776L17.9915 18.1341C17.4034 18.66 17.0007 19.3776 16.8918 20.1817L9.9121 22.0209C9.5229 22.1285 9.13369 22.2899 8.78156 22.4513L8.28116 22.7024C6.14982 23.9399 5.44555 26.6121 6.70582 28.6746C8.00316 30.755 10.7832 31.4186 12.933 30.1632C13.0813 30.0735 13.211 29.9838 13.3408 29.8942L13.6002 29.6789C13.7114 29.5893 13.8412 29.4637 13.9338 29.3382L19.4342 23.8896C19.7309 23.9691 20.043 24.0117 20.365 24.0117C20.7657 24.0117 21.1511 23.9466 21.5104 23.8265L26.5551 29.123C26.8516 29.392 27.2038 29.6789 27.5188 29.93L27.9636 30.2528C30.0208 31.5979 32.8194 31.0778 34.2279 29.0871C35.6179 27.0964 35.0805 24.3883 33.0232 23.0253C32.9676 22.9894 32.9167 22.958 32.8657 22.9266L32.8656 22.9266C32.8147 22.8952 32.7638 22.8638 32.7082 22.828L32.2078 22.5769L31.8927 22.4693L31.4108 22.3258L23.8233 20.0801C23.6834 19.2367 23.2221 18.4954 22.5624 17.9807L24.5349 11.0809C24.6558 10.774 24.6904 10.5028 24.7292 10.1993C24.738 10.1305 24.7471 10.0599 24.7573 9.98689ZM20.4206 21.8954C19.6793 21.8954 19.0677 21.3215 19.0677 20.5862C19.0677 19.8509 19.6607 19.277 20.4206 19.277C21.1805 19.277 21.7735 19.8688 21.7735 20.5862C21.7735 21.3036 21.1619 21.8954 20.4206 21.8954Z" fill="#0075FF"/>
</svg>
