<svg width="208" height="40" viewBox="0 0 208 40" fill="none" xmlns="http://www.w3.org/2000/svg">
<path fill-rule="evenodd" clip-rule="evenodd" d="M20 40C31.0457 40 40 31.0457 40 20C40 8.9543 31.0457 0 20 0C8.9543 0 0 8.9543 0 20C0 31.0457 8.9543 40 20 40ZM24.7573 9.98689L24.7759 9.44885C24.8315 7.04563 22.8669 5.05491 20.3649 5.0011C17.8815 4.9473 15.8243 6.86629 15.7687 9.26951C15.7687 9.50266 15.7872 9.75374 15.8057 9.98689L15.8613 10.3097L15.9725 10.776L17.9915 18.1341C17.4034 18.66 17.0007 19.3776 16.8918 20.1817L9.9121 22.0209C9.5229 22.1285 9.13369 22.2899 8.78156 22.4513L8.28116 22.7024C6.14982 23.9399 5.44555 26.6121 6.70582 28.6746C8.00316 30.755 10.7832 31.4186 12.933 30.1632C13.0813 30.0735 13.211 29.9838 13.3408 29.8942L13.3408 29.8942L13.6002 29.6789C13.7114 29.5893 13.8412 29.4637 13.9338 29.3382L19.4342 23.8896C19.7309 23.9691 20.043 24.0117 20.365 24.0117C20.7657 24.0117 21.1511 23.9466 21.5104 23.8265L26.5551 29.123C26.8516 29.392 27.2038 29.6789 27.5188 29.93L27.9636 30.2528C30.0208 31.5979 32.8194 31.0778 34.2279 29.0871C35.6179 27.0964 35.0805 24.3883 33.0232 23.0253C32.9676 22.9894 32.9167 22.958 32.8657 22.9266L32.8656 22.9266C32.8147 22.8952 32.7638 22.8638 32.7082 22.828L32.2078 22.5769L31.8927 22.4693L31.4108 22.3258L23.8233 20.0801C23.6834 19.2367 23.2221 18.4954 22.5624 17.9807L24.5349 11.0809C24.6558 10.774 24.6904 10.5028 24.7292 10.1994V10.1993L24.7293 10.1992C24.7381 10.1304 24.7471 10.0599 24.7573 9.98689ZM20.4206 21.8954C19.6793 21.8954 19.0677 21.3215 19.0677 20.5862C19.0677 19.8509 19.6607 19.277 20.4206 19.277C21.1805 19.277 21.7735 19.8688 21.7735 20.5862C21.7735 21.3036 21.1619 21.8954 20.4206 21.8954Z" fill="black"/>
<path d="M52.1292 18.6957C50.9924 18.6957 49.904 18.4201 48.9123 17.846C48.0174 17.3177 47.7271 16.1923 48.2834 15.3426C48.3076 15.3196 48.3076 15.2966 48.3318 15.2737V15.2507C48.8397 14.5158 49.9523 14.1253 50.8231 14.5847C51.0166 14.6995 51.2343 14.7914 51.452 14.8603C51.8631 14.9751 52.4436 14.9751 52.7339 14.6536C52.8548 14.4928 52.9274 14.332 52.9032 14.1483C52.8064 13.666 52.2743 13.5971 51.8631 13.4822C51.5245 13.3904 51.1859 13.2985 50.8715 13.1607C50.3877 12.931 49.9523 12.6325 49.5653 12.288C47.7997 10.7951 47.6304 8.2458 49.2025 6.56922C49.2509 6.52329 49.2993 6.47735 49.3477 6.43142C50.1458 5.60461 51.2343 5.12231 52.3711 5.03044C53.3627 4.96154 54.3544 5.19121 55.2252 5.62758C56.1443 6.10988 56.4829 7.21229 55.975 8.08503C55.975 8.108 55.9508 8.108 55.9508 8.13097L55.9266 8.19987C55.3945 9.09557 54.1851 9.41711 53.2418 8.88887C52.9032 8.72811 52.2501 8.68217 52.1534 9.16447C52.0566 9.57788 52.4678 9.76161 52.7822 9.83051L53.7014 10.0372C54.427 10.2899 55.1042 10.7033 55.6363 11.2085C56.362 11.9894 56.8215 12.9999 56.8699 14.0564C56.8941 15.2737 56.4345 16.422 55.5638 17.2718C54.7172 18.0986 53.5804 18.6039 52.3711 18.6957H52.1292ZM65.6257 11.9894L68.7216 8.5214C69.5198 7.6257 69.423 6.29362 68.4797 5.53571C67.5606 4.7778 66.182 4.86967 65.3838 5.74241L65.3596 5.76538L65.3354 5.78835L62.699 8.72811V4.18067C62.699 3.00936 61.7557 2.06772 60.498 2.04475C59.2644 2.02178 58.2486 2.96342 58.2486 4.13473V16.5598C58.2486 17.7311 59.1919 18.6728 60.4496 18.6957C61.6831 18.6957 62.6748 17.8 62.699 16.6057V15.1588L65.6015 18.0527C66.0368 18.4661 66.6415 18.6957 67.2462 18.7187C67.8267 18.7187 68.3588 18.512 68.77 18.1216C69.6649 17.3177 69.7133 15.9856 68.8667 15.1359L65.6257 11.9894ZM81.4441 5.14527C80.2831 4.68594 78.9528 5.19121 78.4449 6.29362L78.4207 6.36252L76.389 10.9789L74.4056 6.36252C73.9461 5.23714 72.5916 4.7089 71.4306 5.14527C71.4306 5.14527 71.4306 5.14527 71.4064 5.14527H71.3822C70.197 5.60461 69.6165 6.89076 70.1003 8.01613L74.1879 17.4555L73.7526 18.4431C73.5349 18.9713 73.1479 19.4077 72.6399 19.7063C72.132 20.0048 71.5515 20.1656 70.9468 20.1656C69.8342 20.1426 68.9151 20.9465 68.8667 22.003C68.8667 22.0259 68.8667 22.0489 68.8667 22.0719C68.8426 23.1513 69.7375 24.024 70.8743 24.047H70.9952C73.8251 24.047 76.4132 22.4164 77.5258 19.9359V19.913L80.525 13.0229L80.6217 12.7703L82.726 7.9702C83.1856 6.89076 82.6293 5.62758 81.4441 5.14527ZM87.1765 18.6957C86.0397 18.6957 84.9512 18.4201 83.9596 17.846C83.0646 17.3177 82.7744 16.1923 83.3307 15.3426C83.3549 15.3196 83.3549 15.2966 83.3791 15.2737V15.2507C83.887 14.5158 84.9996 14.1253 85.8704 14.5847C86.0639 14.6995 86.2815 14.7914 86.4992 14.8603C86.9104 14.9751 87.4909 14.9751 87.7811 14.6536C87.9021 14.4928 87.9746 14.332 87.9505 14.1483C87.8537 13.666 87.3216 13.5971 86.9104 13.4822C86.5718 13.3904 86.2332 13.2985 85.9187 13.1607C85.435 12.931 84.9996 12.6325 84.6126 12.288C82.847 10.7951 82.6776 8.2458 84.2498 6.56922C84.2982 6.52329 84.3466 6.47735 84.3949 6.43142C85.1931 5.60461 86.2815 5.12231 87.4183 5.03044C88.41 4.96154 89.4017 5.19121 90.2724 5.62758C91.1915 6.10988 91.5302 7.21229 91.0222 8.08503C91.0222 8.108 90.998 8.108 90.998 8.13097L90.9739 8.19987C90.4417 9.09557 89.2324 9.41711 88.2891 8.88887C87.9505 8.72811 87.2974 8.68217 87.2007 9.16447C87.1039 9.57788 87.5151 9.76161 87.8295 9.83051L88.7486 10.0372C89.4743 10.2899 90.1515 10.7033 90.6836 11.2085C91.4092 11.9894 91.8688 12.9999 91.9172 14.0564C91.9413 15.2737 91.4818 16.422 90.6111 17.2718C89.7645 18.0986 88.6277 18.6039 87.4183 18.6957H87.1765ZM99.2217 14.4009C98.4235 14.378 97.7705 13.7808 97.7463 12.9999V8.86591H99.4636C100.576 8.86591 101.447 7.99317 101.447 6.95966C101.447 5.92615 100.552 5.12231 99.4636 5.07637H97.7463V4.0888C97.7463 2.91749 96.7304 1.95288 95.4969 1.95288C94.2633 1.95288 93.2475 2.91749 93.2475 4.0888V13.0459C93.2233 16.1464 95.8597 18.6728 99.1491 18.6957H99.2459C100.479 18.6957 101.471 17.7541 101.471 16.5828V16.5598C101.423 15.3655 100.431 14.4239 99.2217 14.4009ZM113.42 5.07637C112.742 5.07637 112.138 5.39791 111.775 5.92615C108.316 4.0888 103.962 5.23714 102.003 8.5214C100.068 11.8057 101.278 15.9397 104.736 17.8C106.913 18.9713 109.598 18.9713 111.775 17.8C112.331 18.6957 113.565 18.9713 114.484 18.4201C115.089 18.0756 115.451 17.4555 115.427 16.7895V6.95966C115.379 5.92615 114.508 5.09934 113.42 5.07637ZM110.541 14.1024C109.308 15.2966 107.276 15.2966 106.042 14.1253L106.018 14.1024C104.785 12.9081 104.809 11.0018 106.067 9.83051L106.091 9.80755C107.349 8.6592 109.332 8.6592 110.59 9.80755C111.799 11.0018 111.775 12.9081 110.541 14.1024ZM124.014 5.12231L123.699 5.09934C122.732 5.09934 121.764 5.30604 120.893 5.74241C120.168 4.98451 118.91 4.91561 118.112 5.60461C117.701 5.97208 117.459 6.47735 117.459 7.00559V16.5598C117.459 17.7311 118.451 18.6957 119.684 18.6957C120.918 18.6957 121.933 17.7541 121.933 16.5828V11.0478C121.933 10.1521 122.732 9.39414 123.675 9.39414H123.868C125.102 9.41711 126.118 8.47547 126.118 7.30416V7.28119C126.166 6.10988 125.223 5.16824 124.014 5.12231ZM133.277 14.4009C132.479 14.378 131.826 13.7808 131.802 12.9999V8.86591H133.519C134.632 8.86591 135.503 7.99317 135.503 6.95966C135.503 5.92615 134.608 5.12231 133.519 5.07637H131.802V4.0888C131.802 2.91749 130.786 1.95288 129.552 1.95288C128.319 1.95288 127.303 2.91749 127.303 4.0888V13.0459C127.279 16.1464 129.915 18.6728 133.205 18.6957H133.301C134.535 18.6957 135.527 17.7541 135.527 16.5828V16.5598C135.478 15.3655 134.487 14.4239 133.277 14.4009Z" fill="black"/>
<path d="M139.699 18.9059C139.002 18.9059 138.416 18.6679 137.94 18.1921C137.464 17.7162 137.226 17.1213 137.226 16.4075C137.226 15.6767 137.464 15.0904 137.94 14.6485C138.416 14.1896 139.002 13.9602 139.699 13.9602C140.396 13.9602 140.982 14.1896 141.458 14.6485C141.934 15.0904 142.172 15.6767 142.172 16.4075C142.172 17.1213 141.934 17.7162 141.458 18.1921C140.982 18.6679 140.396 18.9059 139.699 18.9059Z" fill="black"/>
<path d="M153.104 18.0391C152.713 18.328 152.229 18.549 151.651 18.7019C151.09 18.8379 150.495 18.9059 149.866 18.9059C148.235 18.9059 146.968 18.4895 146.068 17.6567C145.184 16.8239 144.742 15.6002 144.742 13.9857V8.35168H142.626V5.29249H144.742V1.95288H148.719V5.29249H152.135V8.35168H148.719V13.9347C148.719 14.5125 148.863 14.9629 149.152 15.2858C149.458 15.5917 149.883 15.7447 150.427 15.7447C151.056 15.7447 151.591 15.5748 152.033 15.2348L153.104 18.0391Z" fill="black"/>
<path d="M167.838 11.8952C167.838 11.9462 167.813 12.3031 167.762 12.9659H157.386C157.573 13.8157 158.015 14.487 158.712 14.9799C159.408 15.4728 160.275 15.7192 161.312 15.7192C162.026 15.7192 162.654 15.6172 163.198 15.4133C163.759 15.1924 164.278 14.8524 164.753 14.3936L166.869 16.688C165.578 18.1666 163.691 18.9059 161.21 18.9059C159.663 18.9059 158.295 18.6084 157.105 18.0136C155.916 17.4018 154.998 16.5605 154.352 15.4898C153.706 14.4191 153.383 13.2039 153.383 11.8442C153.383 10.5016 153.698 9.29493 154.327 8.22421C154.973 7.1365 155.848 6.29522 156.952 5.70038C158.074 5.08855 159.323 4.78263 160.7 4.78263C162.043 4.78263 163.258 5.07155 164.346 5.6494C165.433 6.22724 166.283 7.06002 166.895 8.14773C167.524 9.21845 167.838 10.4676 167.838 11.8952ZM160.725 7.79083C159.825 7.79083 159.068 8.04576 158.457 8.55562C157.845 9.06549 157.471 9.7623 157.335 10.6461H164.091C163.955 9.7793 163.581 9.09098 162.969 8.58112C162.357 8.05426 161.609 7.79083 160.725 7.79083Z" fill="black"/>
<path d="M175.135 4.78263C177.259 4.78263 178.891 5.29249 180.029 6.31222C181.168 7.31495 181.737 8.83605 181.737 10.8755V18.7019H178.015V16.9939C177.267 18.2685 175.874 18.9059 173.834 18.9059C172.781 18.9059 171.863 18.7274 171.081 18.3705C170.316 18.0136 169.73 17.5207 169.322 16.8919C168.914 16.2631 168.71 15.5493 168.71 14.7505C168.71 13.4758 169.186 12.4731 170.138 11.7423C171.107 11.0115 172.594 10.6461 174.599 10.6461H177.76C177.76 9.7793 177.497 9.11647 176.97 8.6576C176.443 8.18172 175.653 7.94379 174.599 7.94379C173.868 7.94379 173.146 8.06275 172.432 8.30069C171.735 8.52163 171.141 8.82755 170.648 9.21845L169.22 6.43969C169.968 5.91283 170.86 5.50493 171.897 5.21601C172.951 4.92709 174.03 4.78263 175.135 4.78263ZM174.829 16.2291C175.508 16.2291 176.112 16.0761 176.639 15.7702C177.165 15.4473 177.539 14.9799 177.76 14.3681V12.9659H175.033C173.401 12.9659 172.585 13.5013 172.585 14.572C172.585 15.0819 172.781 15.4898 173.172 15.7957C173.579 16.0846 174.132 16.2291 174.829 16.2291Z" fill="black"/>
<path d="M202.392 4.78263C204.108 4.78263 205.468 5.29249 206.47 6.31222C207.49 7.31495 208 8.82755 208 10.85V18.7019H204.023V11.4618C204.023 10.3741 203.794 9.56685 203.335 9.03999C202.893 8.49614 202.256 8.22421 201.423 8.22421C200.488 8.22421 199.749 8.53013 199.205 9.14197C198.661 9.73681 198.389 10.6291 198.389 11.8188V18.7019H194.412V11.4618C194.412 9.30342 193.545 8.22421 191.812 8.22421C190.894 8.22421 190.163 8.53013 189.619 9.14197C189.076 9.73681 188.804 10.6291 188.804 11.8188V18.7019H184.827V4.98657H188.625V6.56715C189.135 5.98931 189.755 5.54742 190.486 5.24151C191.234 4.93559 192.05 4.78263 192.934 4.78263C193.902 4.78263 194.778 4.97808 195.559 5.36897C196.341 5.74287 196.97 6.29522 197.446 7.02603C198.007 6.31222 198.712 5.75987 199.562 5.36897C200.429 4.97808 201.372 4.78263 202.392 4.78263Z" fill="black"/>
<path d="M48.7156 36.0471V26.5926H50.973V30.1703H51.0192C51.1115 29.9549 51.2423 29.7472 51.4116 29.5471C51.5839 29.3471 51.8024 29.184 52.0671 29.0578C52.3349 28.9285 52.6549 28.8639 53.0273 28.8639C53.5198 28.8639 53.9799 28.9931 54.4077 29.2517C54.8385 29.5102 55.1863 29.9087 55.451 30.4473C55.7157 30.9859 55.848 31.6722 55.848 32.5063C55.848 33.3095 55.7203 33.982 55.4648 34.5237C55.2125 35.0653 54.8709 35.4716 54.44 35.7424C54.0122 36.0133 53.5367 36.1487 53.0135 36.1487C52.6565 36.1487 52.3472 36.0902 52.0856 35.9733C51.824 35.8563 51.6039 35.7024 51.4254 35.5116C51.25 35.3208 51.1146 35.1161 51.0192 34.8976H50.9499V36.0471H48.7156ZM50.9268 32.5017C50.9268 32.8833 50.9776 33.2157 51.0792 33.4988C51.1838 33.782 51.3331 34.002 51.527 34.159C51.724 34.3129 51.9594 34.3898 52.2333 34.3898C52.5103 34.3898 52.7457 34.3129 52.9396 34.159C53.1335 34.002 53.2797 33.782 53.3782 33.4988C53.4798 33.2157 53.5305 32.8833 53.5305 32.5017C53.5305 32.12 53.4798 31.7892 53.3782 31.5091C53.2797 31.2291 53.1335 31.0121 52.9396 30.8582C52.7488 30.7043 52.5134 30.6274 52.2333 30.6274C51.9563 30.6274 51.7209 30.7028 51.527 30.8536C51.3331 31.0044 51.1838 31.2198 51.0792 31.4999C50.9776 31.78 50.9268 32.1139 50.9268 32.5017ZM58.3128 38.7062C58.042 38.7062 57.7865 38.6847 57.5465 38.6416C57.3064 38.6016 57.1002 38.5477 56.9279 38.48L57.4264 36.8412C57.648 36.915 57.8481 36.9581 58.0266 36.9704C58.2082 36.9827 58.3636 36.9535 58.4928 36.8827C58.6252 36.815 58.7267 36.6934 58.7975 36.518L58.8852 36.3056L56.3646 28.9562H58.7283L60.0347 34.0159H60.1086L61.4335 28.9562H63.811L61.1381 36.7257C61.0088 37.1135 60.8257 37.4551 60.5887 37.7506C60.3548 38.0491 60.0517 38.283 59.6793 38.4523C59.31 38.6216 58.8545 38.7062 58.3128 38.7062ZM69.7747 36.0471H67.3187L70.5087 26.5926H73.551L76.7409 36.0471H74.285L72.0644 28.9747H71.9906L69.7747 36.0471ZM69.4469 32.3262H74.5804V34.062H69.4469V32.3262ZM80.1463 26.5926V36.0471H77.8889V26.5926H80.1463ZM85.0278 36.181C84.2861 36.181 83.646 36.0348 83.1074 35.7424C82.5719 35.447 82.1595 35.0269 81.8702 34.4821C81.584 33.9343 81.4408 33.2834 81.4408 32.5294C81.4408 31.7969 81.5855 31.1567 81.8748 30.6089C82.1641 30.058 82.5719 29.6302 83.0982 29.3255C83.6244 29.0178 84.2446 28.8639 84.9586 28.8639C85.4633 28.8639 85.925 28.9424 86.3435 29.0993C86.7621 29.2563 87.1237 29.4886 87.4284 29.7964C87.7331 30.1042 87.9701 30.4843 88.1393 30.9367C88.3086 31.386 88.3933 31.9015 88.3933 32.4832V33.0464H82.2303V31.7353H86.2928C86.2897 31.4953 86.2327 31.2814 86.1219 31.0936C86.0112 30.9059 85.8588 30.7597 85.6649 30.6551C85.4741 30.5474 85.254 30.4935 85.0048 30.4935C84.7524 30.4935 84.5262 30.5504 84.3261 30.6643C84.1261 30.7751 83.9676 30.9274 83.8506 31.1213C83.7337 31.3122 83.6721 31.5291 83.666 31.7723V33.1064C83.666 33.3957 83.7229 33.6496 83.8368 33.8681C83.9507 34.0836 84.1122 34.2513 84.3215 34.3713C84.5308 34.4914 84.7801 34.5514 85.0694 34.5514C85.2694 34.5514 85.451 34.5237 85.6141 34.4683C85.7773 34.4129 85.9173 34.3313 86.0342 34.2236C86.1512 34.1159 86.2389 33.9836 86.2974 33.8266L88.3702 33.8866C88.284 34.3513 88.0947 34.756 87.8023 35.1007C87.513 35.4424 87.133 35.7086 86.6621 35.8994C86.1912 36.0871 85.6465 36.181 85.0278 36.181ZM89.6762 38.7062V28.9562H91.9106V30.1703H91.9798C92.0722 29.9549 92.203 29.7472 92.3722 29.5471C92.5446 29.3471 92.7631 29.184 93.0278 29.0578C93.2955 28.9285 93.6156 28.8639 93.988 28.8639C94.4804 28.8639 94.9405 28.9931 95.3683 29.2517C95.7992 29.5102 96.147 29.9087 96.4117 30.4473C96.6763 30.9859 96.8087 31.6722 96.8087 32.5063C96.8087 33.3095 96.681 33.982 96.4255 34.5237C96.1731 35.0653 95.8315 35.4716 95.4006 35.7424C94.9729 36.0133 94.4974 36.1487 93.9742 36.1487C93.6171 36.1487 93.3078 36.0902 93.0462 35.9733C92.7846 35.8563 92.5646 35.7024 92.3861 35.5116C92.2107 35.3208 92.0752 35.1161 91.9798 34.8976H91.9337V38.7062H89.6762ZM91.8875 32.5017C91.8875 32.8833 91.9383 33.2157 92.0399 33.4988C92.1445 33.782 92.2938 34.002 92.4877 34.159C92.6846 34.3129 92.9201 34.3898 93.194 34.3898C93.471 34.3898 93.7064 34.3129 93.9003 34.159C94.0942 34.002 94.2404 33.782 94.3389 33.4988C94.4404 33.2157 94.4912 32.8833 94.4912 32.5017C94.4912 32.12 94.4404 31.7892 94.3389 31.5091C94.2404 31.2291 94.0942 31.0121 93.9003 30.8582C93.7095 30.7043 93.474 30.6274 93.194 30.6274C92.917 30.6274 92.6815 30.7028 92.4877 30.8536C92.2938 31.0044 92.1445 31.2198 92.0399 31.4999C91.9383 31.78 91.8875 32.1139 91.8875 32.5017ZM100.379 32.0031V36.0471H98.1216V26.5926H100.305V30.2581H100.384C100.544 29.821 100.805 29.4794 101.169 29.2332C101.535 28.987 101.983 28.8639 102.512 28.8639C103.01 28.8639 103.444 28.9747 103.814 29.1963C104.183 29.4148 104.469 29.7241 104.672 30.1242C104.879 30.5243 104.98 30.9921 104.977 31.5276V36.0471H102.72V31.9708C102.723 31.5768 102.624 31.2691 102.424 31.0475C102.224 30.8259 101.943 30.7151 101.579 30.7151C101.342 30.7151 101.133 30.7674 100.952 30.872C100.773 30.9736 100.633 31.1198 100.531 31.3106C100.433 31.5014 100.382 31.7323 100.379 32.0031Z" fill="#667085"/>
</svg>
