<svg width="208" height="40" viewBox="0 0 208 40" fill="none" xmlns="http://www.w3.org/2000/svg">
<path fill-rule="evenodd" clip-rule="evenodd" d="M20 40C31.0457 40 40 31.0457 40 20C40 8.9543 31.0457 0 20 0C8.9543 0 0 8.9543 0 20C0 31.0457 8.9543 40 20 40ZM24.7573 9.98689L24.7759 9.44885C24.8315 7.04563 22.8669 5.05491 20.3649 5.0011C17.8815 4.9473 15.8243 6.86629 15.7687 9.26951C15.7687 9.50266 15.7872 9.75374 15.8057 9.98689L15.8613 10.3097L15.9725 10.776L17.9915 18.1341C17.4034 18.66 17.0007 19.3776 16.8918 20.1817L9.9121 22.0209C9.5229 22.1285 9.13369 22.2899 8.78156 22.4513L8.28116 22.7024C6.14982 23.9399 5.44555 26.6121 6.70582 28.6746C8.00316 30.755 10.7832 31.4186 12.933 30.1632C13.0813 30.0735 13.211 29.9838 13.3408 29.8942L13.6002 29.6789C13.7114 29.5893 13.8412 29.4637 13.9338 29.3382L19.4342 23.8896C19.7309 23.9691 20.043 24.0117 20.365 24.0117C20.7657 24.0117 21.1511 23.9466 21.5104 23.8265L26.5551 29.123C26.8516 29.392 27.2038 29.6789 27.5188 29.93L27.9636 30.2528C30.0208 31.5979 32.8194 31.0778 34.2279 29.0871C35.6179 27.0964 35.0805 24.3883 33.0232 23.0253C32.9676 22.9894 32.9167 22.958 32.8657 22.9266C32.8147 22.8952 32.7638 22.8638 32.7082 22.828L32.2078 22.5769L31.8927 22.4693L31.4108 22.3258L23.8233 20.0801C23.6834 19.2367 23.2221 18.4954 22.5624 17.9807L24.5349 11.0809C24.6558 10.774 24.6904 10.5028 24.7292 10.1994V10.1993L24.7293 10.1992C24.7381 10.1304 24.7471 10.0599 24.7573 9.98689ZM20.4206 21.8954C19.6793 21.8954 19.0677 21.3215 19.0677 20.5862C19.0677 19.8509 19.6607 19.277 20.4206 19.277C21.1805 19.277 21.7735 19.8688 21.7735 20.5862C21.7735 21.3036 21.1619 21.8954 20.4206 21.8954Z" fill="black"/>
<path d="M52.1292 27.1486C50.9924 27.1486 49.904 26.873 48.9123 26.2988C48.0174 25.7706 47.7271 24.6452 48.2834 23.7954C48.3076 23.7725 48.3076 23.7495 48.3318 23.7265V23.7036C48.8397 22.9686 49.9523 22.5782 50.8231 23.0375C51.0166 23.1524 51.2343 23.2442 51.452 23.3131C51.8631 23.428 52.4436 23.428 52.7339 23.1064C52.8548 22.9457 52.9274 22.7849 52.9032 22.6012C52.8064 22.1189 52.2743 22.05 51.8631 21.9351C51.5245 21.8433 51.1859 21.7514 50.8715 21.6136C50.3877 21.3839 49.9523 21.0854 49.5653 20.7408C47.7997 19.248 47.6304 16.6987 49.2025 15.0221C49.2509 14.9762 49.2993 14.9302 49.3477 14.8843C50.1458 14.0575 51.2343 13.5752 52.3711 13.4833C53.3627 13.4144 54.3544 13.6441 55.2252 14.0805C56.1443 14.5628 56.4829 15.6652 55.975 16.5379C55.975 16.5609 55.9508 16.5609 55.9508 16.5838L55.9266 16.6527C55.3945 17.5485 54.1851 17.87 53.2418 17.3418C52.9032 17.181 52.2501 17.1351 52.1534 17.6174C52.0566 18.0308 52.4678 18.2145 52.7822 18.2834L53.7014 18.4901C54.427 18.7427 55.1042 19.1561 55.6363 19.6614C56.362 20.4423 56.8215 21.4528 56.8699 22.5093C56.8941 23.7265 56.4345 24.8749 55.5638 25.7247C54.7172 26.5515 53.5804 27.0567 52.3711 27.1486H52.1292ZM65.6257 20.4423L68.7216 16.9743C69.5198 16.0786 69.423 14.7465 68.4797 13.9886C67.5606 13.2307 66.182 13.3226 65.3838 14.1953L65.3596 14.2183L65.3354 14.2412L62.699 17.181V12.6335C62.699 11.4622 61.7557 10.5206 60.498 10.4976C59.2644 10.4747 58.2486 11.4163 58.2486 12.5876V25.0127C58.2486 26.184 59.1919 27.1256 60.4496 27.1486C61.6831 27.1486 62.6748 26.2529 62.699 25.0586V23.6117L65.6015 26.5055C66.0368 26.9189 66.6415 27.1486 67.2462 27.1716C67.8267 27.1716 68.3588 26.9649 68.77 26.5744C69.6649 25.7706 69.7133 24.4385 68.8667 23.5887L65.6257 20.4423ZM81.4441 13.5982C80.2831 13.1388 78.9528 13.6441 78.4449 14.7465L78.4207 14.8154L76.389 19.4317L74.4056 14.8154C73.9461 13.69 72.5916 13.1618 71.4306 13.5982C71.4306 13.5982 71.4306 13.5982 71.4064 13.5982H71.3822C70.197 14.0575 69.6165 15.3436 70.1003 16.469L74.1879 25.9084L73.7526 26.896C73.5349 27.4242 73.1479 27.8606 72.6399 28.1591C72.132 28.4577 71.5515 28.6185 70.9468 28.6185C69.8342 28.5955 68.9151 29.3994 68.8667 30.4558C68.8667 30.4788 68.8667 30.5018 68.8667 30.5247C68.8426 31.6042 69.7375 32.4769 70.8743 32.4999H70.9952C73.8251 32.4999 76.4132 30.8692 77.5258 28.3888V28.3658L80.525 21.4758L80.6217 21.2232L82.726 16.4231C83.1856 15.3436 82.6293 14.0805 81.4441 13.5982ZM87.1765 27.1486C86.0397 27.1486 84.9512 26.873 83.9596 26.2988C83.0646 25.7706 82.7744 24.6452 83.3307 23.7954C83.3549 23.7725 83.3549 23.7495 83.3791 23.7265V23.7036C83.887 22.9686 84.9996 22.5782 85.8704 23.0375C86.0639 23.1524 86.2815 23.2442 86.4992 23.3131C86.9104 23.428 87.4909 23.428 87.7811 23.1064C87.9021 22.9457 87.9746 22.7849 87.9505 22.6012C87.8537 22.1189 87.3216 22.05 86.9104 21.9351C86.5718 21.8433 86.2332 21.7514 85.9187 21.6136C85.435 21.3839 84.9996 21.0854 84.6126 20.7408C82.847 19.248 82.6776 16.6987 84.2498 15.0221C84.2982 14.9762 84.3466 14.9302 84.3949 14.8843C85.1931 14.0575 86.2815 13.5752 87.4183 13.4833C88.41 13.4144 89.4017 13.6441 90.2724 14.0805C91.1915 14.5628 91.5302 15.6652 91.0222 16.5379C91.0222 16.5609 90.998 16.5609 90.998 16.5838L90.9739 16.6527C90.4417 17.5485 89.2324 17.87 88.2891 17.3418C87.9505 17.181 87.2974 17.1351 87.2007 17.6174C87.1039 18.0308 87.5151 18.2145 87.8295 18.2834L88.7486 18.4901C89.4743 18.7427 90.1515 19.1561 90.6836 19.6614C91.4092 20.4423 91.8688 21.4528 91.9172 22.5093C91.9413 23.7265 91.4818 24.8749 90.6111 25.7247C89.7645 26.5515 88.6277 27.0567 87.4183 27.1486H87.1765ZM99.2217 22.8538C98.4235 22.8308 97.7705 22.2337 97.7463 21.4528V17.3188H99.4636C100.576 17.3188 101.447 16.446 101.447 15.4125C101.447 14.379 100.552 13.5752 99.4636 13.5293H97.7463V12.5417C97.7463 11.3704 96.7304 10.4058 95.4969 10.4058C94.2633 10.4058 93.2475 11.3704 93.2475 12.5417V21.4988C93.2233 24.5993 95.8597 27.1256 99.1491 27.1486H99.2459C100.479 27.1486 101.471 26.207 101.471 25.0357V25.0127C101.423 23.8184 100.431 22.8768 99.2217 22.8538ZM113.42 13.5293C112.742 13.5293 112.138 13.8508 111.775 14.379C108.316 12.5417 103.962 13.69 102.003 16.9743C100.068 20.2585 101.278 24.3926 104.736 26.2529C106.913 27.4242 109.598 27.4242 111.775 26.2529C112.331 27.1486 113.565 27.4242 114.484 26.873C115.089 26.5285 115.451 25.9084 115.427 25.2424V15.4125C115.379 14.379 114.508 13.5522 113.42 13.5293ZM110.541 22.5552C109.308 23.7495 107.276 23.7495 106.042 22.5782L106.018 22.5552C104.785 21.361 104.809 19.4547 106.067 18.2834L106.091 18.2604C107.349 17.1121 109.332 17.1121 110.59 18.2604C111.799 19.4547 111.775 21.361 110.541 22.5552ZM124.014 13.5752L123.699 13.5522C122.732 13.5522 121.764 13.7589 120.893 14.1953C120.168 13.4374 118.91 13.3685 118.112 14.0575C117.701 14.425 117.459 14.9302 117.459 15.4585V25.0127C117.459 26.184 118.451 27.1486 119.684 27.1486C120.918 27.1486 121.933 26.207 121.933 25.0357V19.5006C121.933 18.6049 122.732 17.847 123.675 17.847H123.868C125.102 17.87 126.118 16.9284 126.118 15.757V15.7341C126.166 14.5628 125.223 13.6211 124.014 13.5752ZM133.277 22.8538C132.479 22.8308 131.826 22.2337 131.802 21.4528V17.3188H133.519C134.632 17.3188 135.503 16.446 135.503 15.4125C135.503 14.379 134.608 13.5752 133.519 13.5293H131.802V12.5417C131.802 11.3704 130.786 10.4058 129.552 10.4058C128.319 10.4058 127.303 11.3704 127.303 12.5417V21.4988C127.279 24.5993 129.915 27.1256 133.205 27.1486H133.301C134.535 27.1486 135.527 26.207 135.527 25.0357V25.0127C135.478 23.8184 134.487 22.8768 133.277 22.8538Z" fill="black"/>
<path d="M139.699 27.3587C139.002 27.3587 138.416 27.1208 137.94 26.6449C137.464 26.1691 137.226 25.5742 137.226 24.8604C137.226 24.1296 137.464 23.5433 137.94 23.1014C138.416 22.6425 139.002 22.4131 139.699 22.4131C140.396 22.4131 140.982 22.6425 141.458 23.1014C141.934 23.5433 142.172 24.1296 142.172 24.8604C142.172 25.5742 141.934 26.1691 141.458 26.6449C140.982 27.1208 140.396 27.3587 139.699 27.3587Z" fill="black"/>
<path d="M153.104 26.492C152.713 26.7809 152.228 27.0018 151.651 27.1548C151.09 27.2908 150.495 27.3587 149.866 27.3587C148.235 27.3587 146.968 26.9424 146.068 26.1096C145.184 25.2768 144.742 24.0531 144.742 22.4386V16.8046H142.626V13.7454H144.742V10.4058H148.719V13.7454H152.135V16.8046H148.719V22.3876C148.719 22.9654 148.863 23.4158 149.152 23.7387C149.458 24.0446 149.883 24.1976 150.427 24.1976C151.056 24.1976 151.591 24.0276 152.033 23.6877L153.104 26.492Z" fill="black"/>
<path d="M167.838 20.3481C167.838 20.3991 167.813 20.756 167.762 21.4188H157.386C157.573 22.2686 158.015 22.9399 158.711 23.4328C159.408 23.9257 160.275 24.1721 161.312 24.1721C162.026 24.1721 162.654 24.0701 163.198 23.8662C163.759 23.6452 164.277 23.3053 164.753 22.8464L166.869 25.1408C165.578 26.6194 163.691 27.3587 161.21 27.3587C159.663 27.3587 158.295 27.0613 157.105 26.4665C155.916 25.8547 154.998 25.0134 154.352 23.9427C153.706 22.8719 153.383 21.6568 153.383 20.2971C153.383 18.9545 153.698 17.7478 154.327 16.6771C154.972 15.5894 155.848 14.7481 156.952 14.1533C158.074 13.5414 159.323 13.2355 160.7 13.2355C162.043 13.2355 163.258 13.5244 164.345 14.1023C165.433 14.6801 166.283 15.5129 166.895 16.6006C167.524 17.6713 167.838 18.9205 167.838 20.3481ZM160.725 16.2437C159.825 16.2437 159.068 16.4986 158.457 17.0085C157.845 17.5184 157.471 18.2152 157.335 19.0989H164.091C163.955 18.2322 163.581 17.5439 162.969 17.034C162.357 16.5071 161.609 16.2437 160.725 16.2437Z" fill="black"/>
<path d="M175.134 13.2355C177.259 13.2355 178.89 13.7454 180.029 14.7651C181.168 15.7678 181.737 17.2889 181.737 19.3284V27.1548H178.015V25.4468C177.267 26.7214 175.874 27.3587 173.834 27.3587C172.781 27.3587 171.863 27.1803 171.081 26.8234C170.316 26.4665 169.73 25.9736 169.322 25.3448C168.914 24.716 168.71 24.0021 168.71 23.2034C168.71 21.9287 169.186 20.926 170.138 20.1952C171.107 19.4643 172.594 19.0989 174.599 19.0989H177.76C177.76 18.2322 177.497 17.5694 176.97 17.1105C176.443 16.6346 175.653 16.3967 174.599 16.3967C173.868 16.3967 173.146 16.5156 172.432 16.7536C171.735 16.9745 171.141 17.2804 170.648 17.6713L169.22 14.8926C169.968 14.3657 170.86 13.9578 171.897 13.6689C172.951 13.38 174.03 13.2355 175.134 13.2355ZM174.829 24.682C175.508 24.682 176.112 24.529 176.639 24.2231C177.165 23.9002 177.539 23.4328 177.76 22.821V21.4188H175.032C173.401 21.4188 172.585 21.9542 172.585 23.0249C172.585 23.5348 172.781 23.9427 173.171 24.2486C173.579 24.5375 174.132 24.682 174.829 24.682Z" fill="black"/>
<path d="M202.391 13.2355C204.108 13.2355 205.468 13.7454 206.47 14.7651C207.49 15.7678 208 17.2804 208 19.3029V27.1548H204.023V19.9147C204.023 18.827 203.794 18.0197 203.335 17.4929C202.893 16.949 202.256 16.6771 201.423 16.6771C200.488 16.6771 199.749 16.983 199.205 17.5948C198.661 18.1897 198.389 19.082 198.389 20.2716V27.1548H194.412V19.9147C194.412 17.7563 193.545 16.6771 191.812 16.6771C190.894 16.6771 190.163 16.983 189.619 17.5948C189.076 18.1897 188.804 19.082 188.804 20.2716V27.1548H184.827V13.4395H188.625V15.02C189.135 14.4422 189.755 14.0003 190.486 13.6944C191.234 13.3885 192.05 13.2355 192.934 13.2355C193.902 13.2355 194.778 13.431 195.559 13.8219C196.341 14.1958 196.97 14.7481 197.446 15.4789C198.007 14.7651 198.712 14.2127 199.562 13.8219C200.429 13.431 201.372 13.2355 202.391 13.2355Z" fill="black"/>
</svg>
